<svg xmlns="http://www.w3.org/2000/svg" xmlns:xlink="http://www.w3.org/1999/xlink" width="840" height="581.04"><rect width="840" height="581.04" rx="5" ry="5" class="a"/><svg y="0%" x="0%"><circle cx="20" cy="20" r="6" fill="#ff5f58"/><circle cx="40" cy="20" r="6" fill="#ffbd2e"/><circle cx="60" cy="20" r="6" fill="#18c132"/></svg><svg height="521.04" viewBox="0 0 80 52.104" width="800" x="15" xmlns="http://www.w3.org/2000/svg" xmlns:xlink="http://www.w3.org/1999/xlink" y="50"><style>.a{fill:#293340}.h{fill:#cdd2e9}</style><g font-size="1.67" font-family="Monaco,Consolas,Menlo,'Bitstream Vera Sans Mono','Powerline Symbols',monospace"><defs><symbol id="a"><path fill="transparent" d="M0 0h80v24H0z"/></symbol><symbol id="b"><path fill="#f81ce5" d="M0 0h1.102v2.171H0z"/></symbol></defs><path class="a" d="M0 0h80v52.104H0z"/><svg width="80"><svg><use xlink:href="#a"/><use xlink:href="#b" x="-.004" y="21.685"/><text y="1.67" class="h">internal/modules/cjs/loader.js:589</text><text x="4.008" y="3.841" class="h">throw</text><text x="10.02" y="3.841" class="h">err;</text><text x="4.008" y="6.012" class="h">^</text><text y="10.354" class="h">Error:</text><text x="7.014" y="10.354" class="h">Cannot</text><text x="14.028" y="10.354" class="h">find</text><text x="19.038" y="10.354" class="h">module</text><text x="26.052" y="10.354" class="h">&apos;/Users/mgrip/repos/startd/lib/demo.js&apos;</text><text x="4.008" y="12.525" class="h">at</text><text x="7.014" y="12.525" class="h">Function.Module._resolveFilename</text><text x="40.08" y="12.525" class="h">(internal/modules/cjs/loader.js:587:15)</text><text x="4.008" y="14.696" class="h">at</text><text x="7.014" y="14.696" class="h">Function.Module._load</text><text x="29.058" y="14.696" class="h">(internal/modules/cjs/loader.js:513:25)</text><text x="4.008" y="16.867" class="h">at</text><text x="7.014" y="16.867" class="h">Function.Module.runMain</text><text x="31.062" y="16.867" class="h">(internal/modules/cjs/loader.js:760:12)</text><text x="4.008" y="19.038" class="h">at</text><text x="7.014" y="19.038" class="h">startup</text><text x="15.03" y="19.038" class="h">(internal/bootstrap/node.js:308:19)</text><text x="4.008" y="21.209" class="h">at</text><text x="7.014" y="21.209" class="h">bootstrapNodeJSCore</text><text x="27.054" y="21.209" class="h">(internal/bootstrap/node.js:878:3)</text></svg></svg></g></svg></svg>